ffmpeg started on 2025-04-16 at 10:12:00
Report written to "D:\Convert\FFMetrics\reports\psnr_report-4.txt"
Log level: 32
Command line:
ffmpeg -hide_banner -nostdin -r 24000/1001 -i "G:\\\xc0\xed\xe8\xec\xe5\\\xce\xed\xe3\xee\xe8\xed\xe3\xe8\\!_37_\xc7\xe8\xec\xe0_2025\\JamClub\\\xcf\xee\xe4\xed\xff\xf2\xe8\xe5 \xf3\xf0\xee\xe2\xed\xff \xe2 \xee\xe4\xe8\xed\xee\xf7\xea\xf3\\\xd2\xc2-2\\JamClub_Ore_dake_Level_Up_na_Ken_Season_2_03_1080p_HEVC.mkv" -i "G:\\\xc0\xed\xe8\xec\xe5\\\xce\xed\xe3\xee\xe8\xed\xe3\xe8\\!_37_\xc7\xe8\xec\xe0_2025\\JamClub\\\xcf\xee\xe4\xed\xff\xf2\xe8\xe5 \xf3\xf0\xee\xe2\xed\xff \xe2 \xee\xe4\xe8\xed\xee\xf7\xea\xf3\\\xd2\xc2-2\\JamClub_Ore_dake_Level_Up_na_Ken_Season_2_03_1080p.mp4" -lavfi "[0:v]settb=AVTB,setpts=PTS-STARTPTS,fps=24000/1001,scale=1920:1080:flags=bicubic[main];[1:v]settb=AVTB,setpts=PTS-STARTPTS[ref];[main][ref]psnr=eof_action=endall:stats_file='D\\:/Convert/FFMetrics/logs/psnr_logfile-4.txt'" -f null -
Input #0, matroska,webm, from 'G:\Аниме\Онгоинги\!_37_Зима_2025\JamClub\Поднятие уровня в одиночку\ТВ-2\JamClub_Ore_dake_Level_Up_na_Ken_Season_2_03_1080p_HEVC.mkv':
  Metadata:
    COMPATIBLE_BRANDS: isomiso2avc1mp41
    MAJOR_BRAND     : isom
    MINOR_VERSION   : 512
    ENCODER         : Lavf61.7.100
  Duration: 00:24:03.91, start: -0.001000, bitrate: 1549 kb/s
  Stream #0:0: Video: hevc (Main 10), yuv420p10le(tv, bt709, progressive), 1920x1080 [SAR 1:1 DAR 16:9], 23.98 fps, 23.98 tbr, 1k tbn (default)
      Metadata:
        HANDLER_NAME    : VideoHandler
        VENDOR_ID       : [0][0][0][0]
        ENCODER         : Lavc61.19.100 libx265
        BPS             : 1351429
        DURATION        : 00:24:02.148708333
        NUMBER_OF_FRAMES: 34577
        NUMBER_OF_BYTES : 243620086
        _STATISTICS_WRITING_APP: mkvpropedit v66.0.0 ('Josie') 64-bit
        _STATISTICS_WRITING_DATE_UTC: 2025-04-12 11:32:30
        _STATISTICS_TAGS: BPS DURATION NUMBER_OF_FRAMES NUMBER_OF_BYTES
  Stream #0:1(eng): Audio: aac (LC), 48000 Hz, stereo, fltp (default)
      Metadata:
        HANDLER_NAME    : SoundHandler
        VENDOR_ID       : [0][0][0][0]
        ENCODER         : Lavc61.19.100 aac
        BPS             : 195702
        DURATION        : 00:24:03.864000000
        NUMBER_OF_FRAMES: 67682
        NUMBER_OF_BYTES : 35320988
        _STATISTICS_WRITING_APP: mkvpropedit v66.0.0 ('Josie') 64-bit
        _STATISTICS_WRITING_DATE_UTC: 2025-04-12 11:32:30
        _STATISTICS_TAGS: BPS DURATION NUMBER_OF_FRAMES NUMBER_OF_BYTES
Input #1, mov,mp4,m4a,3gp,3g2,mj2, from 'G:\Аниме\Онгоинги\!_37_Зима_2025\JamClub\Поднятие уровня в одиночку\ТВ-2\JamClub_Ore_dake_Level_Up_na_Ken_Season_2_03_1080p.mp4':
  Metadata:
    major_brand     : isom
    minor_version   : 512
    compatible_brands: isomiso2avc1mp41
    encoder         : Lavf60.16.100
  Duration: 00:24:03.88, start: 0.000000, bitrate: 4880 kb/s
  Stream #1:0[0x1](und): Video: h264 (High) (avc1 / 0x31637661), yuv420p(progressive), 1920x1080 [SAR 1:1 DAR 16:9], 4687 kb/s, 23.98 fps, 23.98 tbr, 90k tbn (default)
      Metadata:
        handler_name    : VideoHandler
        vendor_id       : [0][0][0][0]
  Stream #1:1[0x2](eng): Audio: aac (LC) (mp4a / 0x6134706D), 48000 Hz, stereo, fltp, 191 kb/s (default)
      Metadata:
        handler_name    : SoundHandler
        vendor_id       : [0][0][0][0]
Stream mapping:
  Stream #0:0 (hevc) -> settb:default
  Stream #1:0 (h264) -> settb:default
  psnr:default -> Stream #0:0 (wrapped_avframe)
  Stream #0:1 -> #0:1 (aac (native) -> pcm_s16le (native))
[Parsed_psnr_6 @ 000001330ed65940] not matching timebases found between first input: 1001/24000 and second input 1/1000000, results may be incorrect!
Output #0, null, to 'pipe:':
  Metadata:
    COMPATIBLE_BRANDS: isomiso2avc1mp41
    MAJOR_BRAND     : isom
    MINOR_VERSION   : 512
    encoder         : Lavf61.7.100
  Stream #0:0: Video: wrapped_avframe, yuv420p(tv, bt709, progressive), 1920x1080 [SAR 1:1 DAR 16:9], q=2-31, 200 kb/s, 23.98 fps, 23.98 tbn
      Metadata:
        encoder         : Lavc61.19.100 wrapped_avframe
  Stream #0:1(eng): Audio: pcm_s16le, 48000 Hz, stereo, s16, 1536 kb/s (default)
      Metadata:
        HANDLER_NAME    : SoundHandler
        VENDOR_ID       : [0][0][0][0]
        _STATISTICS_TAGS: BPS DURATION NUMBER_OF_FRAMES NUMBER_OF_BYTES
        BPS             : 195702
        DURATION        : 00:24:03.864000000
        NUMBER_OF_FRAMES: 67682
        NUMBER_OF_BYTES : 35320988
        _STATISTICS_WRITING_APP: mkvpropedit v66.0.0 ('Josie') 64-bit
        _STATISTICS_WRITING_DATE_UTC: 2025-04-12 11:32:30
        encoder         : Lavc61.19.100 pcm_s16le
frame=  119 fps=0.0 q=-0.0 size=N/A time=00:00:04.92 bitrate=N/A speed=9.78x    frame=  317 fps=308 q=-0.0 size=N/A time=00:00:13.17 bitrate=N/A speed=12.8x    frame=  596 fps=387 q=-0.0 size=N/A time=00:00:24.81 bitrate=N/A speed=16.1x    frame=  896 fps=437 q=-0.0 size=N/A time=00:00:37.32 bitrate=N/A speed=18.2x    frame= 1153 fps=447 q=-0.0 size=N/A time=00:00:48.04 bitrate=N/A speed=18.6x    frame= 1430 fps=463 q=-0.0 size=N/A time=00:00:59.60 bitrate=N/A speed=19.3x    frame= 1683 fps=468 q=-0.0 size=N/A time=00:01:10.15 bitrate=N/A speed=19.5x    frame= 1980 fps=482 q=-0.0 size=N/A time=00:01:22.54 bitrate=N/A speed=20.1x    frame= 2287 fps=493 q=-0.0 size=N/A time=00:01:35.34 bitrate=N/A speed=20.6x    frame= 2564 fps=498 q=-0.0 size=N/A time=00:01:46.89 bitrate=N/A speed=20.8x    frame= 2860 fps=505 q=-0.0 size=N/A time=00:01:59.24 bitrate=N/A speed=  21x    frame= 3144 fps=508 q=-0.0 size=N/A time=00:02:11.08 bitrate=N/A speed=21.2x    frame= 3348 fps=500 q=-0.0 size=N/A time=00:02:19.59 bitrate=N/A speed=20.8x    frame= 3598 fps=499 q=-0.0 size=N/A time=00:02:30.02 bitrate=N/A speed=20.8x    frame= 3850 fps=498 q=-0.0 size=N/A time=00:02:40.53 bitrate=N/A speed=20.8x    frame= 4047 fps=491 q=-0.0 size=N/A time=00:02:48.75 bitrate=N/A speed=20.5x    frame= 4248 fps=485 q=-0.0 size=N/A time=00:02:57.13 bitrate=N/A speed=20.2x    frame= 4492 fps=484 q=-0.0 size=N/A time=00:03:07.31 bitrate=N/A speed=20.2x    frame= 4670 fps=477 q=-0.0 size=N/A time=00:03:14.73 bitrate=N/A speed=19.9x    frame= 4871 fps=473 q=-0.0 size=N/A time=00:03:23.11 bitrate=N/A speed=19.7x    frame= 5049 fps=466 q=-0.0 size=N/A time=00:03:30.54 bitrate=N/A speed=19.5x    frame= 5271 fps=465 q=-0.0 size=N/A time=00:03:39.80 bitrate=N/A speed=19.4x    frame= 5568 fps=470 q=-0.0 size=N/A time=00:03:52.19 bitrate=N/A speed=19.6x    frame= 5899 fps=477 q=-0.0 size=N/A time=00:04:05.99 bitrate=N/A speed=19.9x    frame= 6235 fps=484 q=-0.0 size=N/A time=00:04:20.00 bitrate=N/A speed=20.2x    frame= 6541 fps=488 q=-0.0 size=N/A time=00:04:32.77 bitrate=N/A speed=20.4x    frame= 6822 fps=490 q=-0.0 size=N/A time=00:04:44.49 bitrate=N/A speed=20.5x    frame= 7116 fps=493 q=-0.0 size=N/A time=00:04:56.75 bitrate=N/A speed=20.6x    frame= 7445 fps=498 q=-0.0 size=N/A time=00:05:10.47 bitrate=N/A speed=20.8x    frame= 7772 fps=503 q=-0.0 size=N/A time=00:05:24.11 bitrate=N/A speed=  21x    frame= 8086 fps=506 q=-0.0 size=N/A time=00:05:37.21 bitrate=N/A speed=21.1x    frame= 8383 fps=508 q=-0.0 size=N/A time=00:05:49.59 bitrate=N/A speed=21.2x    frame= 8711 fps=512 q=-0.0 size=N/A time=00:06:03.27 bitrate=N/A speed=21.4x    frame= 9010 fps=514 q=-0.0 size=N/A time=00:06:15.75 bitrate=N/A speed=21.4x    frame= 9318 fps=516 q=-0.0 size=N/A time=00:06:28.59 bitrate=N/A speed=21.5x    frame= 9646 fps=520 q=-0.0 size=N/A time=00:06:42.27 bitrate=N/A speed=21.7x    frame= 9967 fps=523 q=-0.0 size=N/A time=00:06:55.66 bitrate=N/A speed=21.8x    frame=10278 fps=525 q=-0.0 size=N/A time=00:07:08.63 bitrate=N/A speed=21.9x    frame=10594 fps=527 q=-0.0 size=N/A time=00:07:21.81 bitrate=N/A speed=  22x    frame=10841 fps=526 q=-0.0 size=N/A time=00:07:32.11 bitrate=N/A speed=21.9x    frame=11096 fps=525 q=-0.0 size=N/A time=00:07:42.75 bitrate=N/A speed=21.9x    frame=11314 fps=523 q=-0.0 size=N/A time=00:07:51.84 bitrate=N/A speed=21.8x    frame=11600 fps=523 q=-0.0 size=N/A time=00:08:03.77 bitrate=N/A speed=21.8x    frame=11908 fps=525 q=-0.0 size=N/A time=00:08:16.62 bitrate=N/A speed=21.9x    frame=12172 fps=525 q=-0.0 size=N/A time=00:08:27.63 bitrate=N/A speed=21.9x    frame=12426 fps=524 q=-0.0 size=N/A time=00:08:38.22 bitrate=N/A speed=21.9x    frame=12688 fps=524 q=-0.0 size=N/A time=00:08:49.15 bitrate=N/A speed=21.8x    frame=12994 fps=525 q=-0.0 size=N/A time=00:09:01.91 bitrate=N/A speed=21.9x    frame=13329 fps=528 q=-0.0 size=N/A time=00:09:15.88 bitrate=N/A speed=  22x    frame=13666 fps=530 q=-0.0 size=N/A time=00:09:29.94 bitrate=N/A speed=22.1x    frame=13982 fps=532 q=-0.0 size=N/A time=00:09:43.12 bitrate=N/A speed=22.2x    frame=14298 fps=533 q=-0.0 size=N/A time=00:09:56.30 bitrate=N/A speed=22.2x    frame=14603 fps=534 q=-0.0 size=N/A time=00:10:09.02 bitrate=N/A speed=22.3x    frame=14930 fps=536 q=-0.0 size=N/A time=00:10:22.66 bitrate=N/A speed=22.4x    frame=15250 fps=538 q=-0.0 size=N/A time=00:10:36.01 bitrate=N/A speed=22.4x    frame=15504 fps=537 q=-0.0 size=N/A time=00:10:46.60 bitrate=N/A speed=22.4x    frame=15727 fps=535 q=-0.0 size=N/A time=00:10:55.90 bitrate=N/A speed=22.3x    frame=15961 fps=534 q=-0.0 size=N/A time=00:11:05.66 bitrate=N/A speed=22.3x    frame=16175 fps=532 q=-0.0 size=N/A time=00:11:14.59 bitrate=N/A speed=22.2x    frame=16359 fps=529 q=-0.0 size=N/A time=00:11:22.26 bitrate=N/A speed=22.1x    frame=16564 fps=527 q=-0.0 size=N/A time=00:11:30.81 bitrate=N/A speed=  22x    frame=16844 fps=527 q=-0.0 size=N/A time=00:11:42.49 bitrate=N/A speed=  22x    frame=17046 fps=525 q=-0.0 size=N/A time=00:11:50.91 bitrate=N/A speed=21.9x    frame=17250 fps=523 q=-0.0 size=N/A time=00:11:59.42 bitrate=N/A speed=21.8x    frame=17486 fps=522 q=-0.0 size=N/A time=00:12:09.27 bitrate=N/A speed=21.8x    frame=17797 fps=523 q=-0.0 size=N/A time=00:12:22.24 bitrate=N/A speed=21.8x    frame=18147 fps=525 q=-0.0 size=N/A time=00:12:36.83 bitrate=N/A speed=21.9x    frame=18446 fps=526 q=-0.0 size=N/A time=00:12:49.31 bitrate=N/A speed=21.9x    frame=18679 fps=525 q=-0.0 size=N/A time=00:12:59.02 bitrate=N/A speed=21.9x    frame=18892 fps=523 q=-0.0 size=N/A time=00:13:07.91 bitrate=N/A speed=21.8x    frame=19123 fps=522 q=-0.0 size=N/A time=00:13:17.54 bitrate=N/A speed=21.8x    frame=19396 fps=523 q=-0.0 size=N/A time=00:13:28.93 bitrate=N/A speed=21.8x    frame=19645 fps=522 q=-0.0 size=N/A time=00:13:39.31 bitrate=N/A speed=21.8x    frame=19874 fps=521 q=-0.0 size=N/A time=00:13:48.86 bitrate=N/A speed=21.7x    frame=20095 fps=520 q=-0.0 size=N/A time=00:13:58.08 bitrate=N/A speed=21.7x    frame=20357 fps=520 q=-0.0 size=N/A time=00:14:09.01 bitrate=N/A speed=21.7x    frame=20676 fps=521 q=-0.0 size=N/A time=00:14:22.31 bitrate=N/A speed=21.7x    frame=20976 fps=522 q=-0.0 size=N/A time=00:14:34.83 bitrate=N/A speed=21.8x    frame=21249 fps=522 q=-0.0 size=N/A time=00:14:46.21 bitrate=N/A speed=21.8x    frame=21516 fps=522 q=-0.0 size=N/A time=00:14:57.35 bitrate=N/A speed=21.8x    frame=21753 fps=521 q=-0.0 size=N/A time=00:15:07.23 bitrate=N/A speed=21.7x    frame=22006 fps=520 q=-0.0 size=N/A time=00:15:17.79 bitrate=N/A speed=21.7x    frame=22263 fps=520 q=-0.0 size=N/A time=00:15:28.51 bitrate=N/A speed=21.7x    frame=22497 fps=519 q=-0.0 size=N/A time=00:15:38.27 bitrate=N/A speed=21.7x    frame=22753 fps=519 q=-0.0 size=N/A time=00:15:48.94 bitrate=N/A speed=21.7x    frame=22965 fps=518 q=-0.0 size=N/A time=00:15:57.79 bitrate=N/A speed=21.6x    frame=23197 fps=517 q=-0.0 size=N/A time=00:16:07.46 bitrate=N/A speed=21.6x    frame=23435 fps=517 q=-0.0 size=N/A time=00:16:17.39 bitrate=N/A speed=21.5x    frame=23677 fps=516 q=-0.0 size=N/A time=00:16:27.48 bitrate=N/A speed=21.5x    frame=23928 fps=516 q=-0.0 size=N/A time=00:16:37.95 bitrate=N/A speed=21.5x    frame=24130 fps=514 q=-0.0 size=N/A time=00:16:46.38 bitrate=N/A speed=21.5x    frame=24328 fps=513 q=-0.0 size=N/A time=00:16:54.63 bitrate=N/A speed=21.4x    frame=24590 fps=513 q=-0.0 size=N/A time=00:17:05.56 bitrate=N/A speed=21.4x    frame=24811 fps=512 q=-0.0 size=N/A time=00:17:14.78 bitrate=N/A speed=21.4x    frame=25079 fps=512 q=-0.0 size=N/A time=00:17:25.96 bitrate=N/A speed=21.4x    frame=25387 fps=513 q=-0.0 size=N/A time=00:17:38.80 bitrate=N/A speed=21.4x    frame=25714 fps=514 q=-0.0 size=N/A time=00:17:52.44 bitrate=N/A speed=21.4x    frame=26041 fps=515 q=-0.0 size=N/A time=00:18:06.08 bitrate=N/A speed=21.5x    frame=26390 fps=517 q=-0.0 size=N/A time=00:18:20.64 bitrate=N/A speed=21.6x    frame=26738 fps=518 q=-0.0 size=N/A time=00:18:35.15 bitrate=N/A speed=21.6x    frame=27074 fps=520 q=-0.0 size=N/A time=00:18:49.16 bitrate=N/A speed=21.7x    frame=27412 fps=521 q=-0.0 size=N/A time=00:19:03.26 bitrate=N/A speed=21.7x    frame=27724 fps=522 q=-0.0 size=N/A time=00:19:16.28 bitrate=N/A speed=21.8x    frame=28024 fps=523 q=-0.0 size=N/A time=00:19:28.79 bitrate=N/A speed=21.8x    frame=28290 fps=522 q=-0.0 size=N/A time=00:19:39.88 bitrate=N/A speed=21.8x    frame=28554 fps=522 q=-0.0 size=N/A time=00:19:50.89 bitrate=N/A speed=21.8x    frame=28838 fps=523 q=-0.0 size=N/A time=00:20:02.74 bitrate=N/A speed=21.8x    frame=29087 fps=522 q=-0.0 size=N/A time=00:20:13.12 bitrate=N/A speed=21.8x    frame=29390 fps=523 q=-0.0 size=N/A time=00:20:25.76 bitrate=N/A speed=21.8x    frame=29664 fps=523 q=-0.0 size=N/A time=00:20:37.19 bitrate=N/A speed=21.8x    frame=29986 fps=524 q=-0.0 size=N/A time=00:20:50.62 bitrate=N/A speed=21.8x    frame=30301 fps=525 q=-0.0 size=N/A time=00:21:03.76 bitrate=N/A speed=21.9x    frame=30538 fps=524 q=-0.0 size=N/A time=00:21:13.64 bitrate=N/A speed=21.9x    frame=30813 fps=524 q=-0.0 size=N/A time=00:21:25.11 bitrate=N/A speed=21.9x    frame=31078 fps=524 q=-0.0 size=N/A time=00:21:36.16 bitrate=N/A speed=21.9x    frame=31378 fps=525 q=-0.0 size=N/A time=00:21:48.68 bitrate=N/A speed=21.9x    frame=31636 fps=524 q=-0.0 size=N/A time=00:21:59.44 bitrate=N/A speed=21.9x    frame=31854 fps=523 q=-0.0 size=N/A time=00:22:08.53 bitrate=N/A speed=21.8x    frame=32158 fps=524 q=-0.0 size=N/A time=00:22:21.21 bitrate=N/A speed=21.9x    frame=32413 fps=524 q=-0.0 size=N/A time=00:22:31.85 bitrate=N/A speed=21.8x    frame=32660 fps=523 q=-0.0 size=N/A time=00:22:42.15 bitrate=N/A speed=21.8x    frame=32919 fps=523 q=-0.0 size=N/A time=00:22:52.95 bitrate=N/A speed=21.8x    frame=33172 fps=523 q=-0.0 size=N/A time=00:23:03.50 bitrate=N/A speed=21.8x    frame=33434 fps=523 q=-0.0 size=N/A time=00:23:14.43 bitrate=N/A speed=21.8x    frame=33610 fps=521 q=-0.0 size=N/A time=00:23:21.77 bitrate=N/A speed=21.7x    frame=33830 fps=521 q=-0.0 size=N/A time=00:23:30.95 bitrate=N/A speed=21.7x    frame=34070 fps=520 q=-0.0 size=N/A time=00:23:40.96 bitrate=N/A speed=21.7x    frame=34324 fps=520 q=-0.0 size=N/A time=00:23:51.55 bitrate=N/A speed=21.7x    frame=34548 fps=519 q=-0.0 size=N/A time=00:24:00.89 bitrate=N/A speed=21.7x    [Parsed_psnr_6 @ 000001330ed65940] PSNR y:24.949821 u:35.906885 v:34.317980 average:26.503100 min:3.983186 max:67.487866
[out#0/null @ 000001337896fe40] video:14857KiB audio:270728KiB subtitle:0KiB other streams:0KiB global headers:0KiB muxing overhead: unknown
frame=34577 fps=519 q=-0.0 Lsize=N/A time=00:24:02.10 bitrate=N/A speed=21.7x    
